<?xml version="1.0" ?><svg viewBox="0 0 64 64" xmlns="http://www.w3.org/2000/svg"><title/><path d="M28.568,41a3.726,3.726,0,0,1-1.882-.508A3.321,3.321,0,0,1,25,37.617V25.39a3.321,3.321,0,0,1,1.691-2.878,3.73,3.73,0,0,1,3.706-.026l10.865,6.14a3.294,3.294,0,0,1,.075,5.766L30.385,40.528A3.715,3.715,0,0,1,28.568,41ZM29,26.291V36.719l9.267-5.192Z"/><path d="M32,53c-13.9,0-21.2-1.372-24.414-4.586C5.74,46.568,4.8,44.177,4.351,40.158a2,2,0,1,1,3.975-.447c.443,3.937,1.311,5.1,2.088,5.875C13.829,49,27.505,49,32,49c10.11,0,18.987-1.815,21.586-4.414C54.881,43.291,56,42.171,56,32c0-9.344-.885-12.057-2.414-13.586C50.171,15,36.495,15,32,15s-18.171,0-21.586,3.414C8.885,19.943,8,22.656,8,32a2,2,0,0,1-4,0c0-9.711.871-13.7,3.586-16.414C10.8,12.372,18.1,11,32,11s21.2,1.372,24.414,4.586C59.129,18.3,60,22.289,60,32c0,10.042-.939,12.768-3.586,15.414C52.3,51.533,41.1,53,32,53Z"/></svg>